<svg width="1333" height="268" viewBox="0 0 1333 268" fill="none" xmlns="http://www.w3.org/2000/svg">
<mask id="mask0_39_57026" style="mask-type:luminance" maskUnits="userSpaceOnUse" x="0" y="36" width="918" height="232">
<path d="M917.757 267.666H712.532C714.633 257.861 715.168 247.923 714.069 238.924C719.732 237.537 725.351 235.283 730.875 231.858C733.227 230.397 735.561 228.727 737.875 226.819C740.008 225.06 741.92 222.997 743.608 220.716C747.027 216.094 749.523 210.572 751.052 204.858C752.791 198.361 753.28 191.618 752.459 185.664C751.699 180.175 749.824 175.359 746.783 172.031C745.489 170.615 743.984 169.468 742.264 168.654C749.155 167.792 755.821 167.406 762.331 167.406C796.76 167.406 826.735 178.194 861.495 186.287C911.915 198.024 908.764 224.964 917.757 267.666ZM411.16 267.666H379.019C383.397 265.409 387.637 262.799 391.719 259.887C405.179 250.284 416.913 237.402 426.177 223.134C429.251 218.399 432.051 213.515 434.553 208.546C445.661 213.79 455.383 218.63 465.6 221.812C464.048 222.306 462.481 222.821 460.903 223.361C455.813 225.104 451.132 227.109 446.837 229.336C434.689 235.636 425.645 243.704 419.263 252.607C415.804 257.432 413.127 262.5 411.16 267.666ZM230.961 267.666H0V195.495C1.48489 195.606 3.00052 195.66 4.54688 195.66C6.44948 195.66 8.39688 195.576 10.3911 195.404C14.6401 195.036 19.0969 194.268 23.7573 193.066C31.8693 190.97 39.9333 190.016 47.9708 190.016C76.7584 190.016 105.239 202.227 134.676 217.842C165.271 234.07 196.897 253.975 230.961 267.666ZM302.773 97.1456C302.183 96.9469 301.592 96.7456 301.003 96.5416C301.227 95.5309 301.383 94.5016 301.464 93.4576C301.873 94.6962 302.311 95.9256 302.773 97.1456ZM217.713 58.4043C214.256 56.8002 210.751 55.2109 207.192 53.6482C209.448 48.3576 210.964 42.4576 211.289 36.2002C212.979 43.8722 215.132 51.3136 217.713 58.4043Z" fill="white"/>
</mask>
<g mask="url(#mask0_39_57026)">
<path d="M917.757 267.666H712.532C714.633 257.861 715.168 247.923 714.069 238.924C719.732 237.537 725.351 235.283 730.875 231.858C733.227 230.397 735.561 228.727 737.875 226.819C740.008 225.06 741.92 222.997 743.608 220.716C747.027 216.094 749.523 210.572 751.052 204.858C752.791 198.361 753.28 191.618 752.459 185.664C751.699 180.175 749.824 175.359 746.783 172.031C745.489 170.615 743.984 169.468 742.264 168.654C749.155 167.792 755.821 167.406 762.331 167.406C796.76 167.406 826.735 178.194 861.495 186.287C911.915 198.024 908.764 224.964 917.757 267.666ZM411.16 267.666H379.019C383.397 265.409 387.637 262.799 391.719 259.887C405.179 250.284 416.913 237.402 426.177 223.134C429.251 218.399 432.051 213.515 434.553 208.546C445.661 213.79 455.383 218.63 465.6 221.812C464.048 222.306 462.481 222.821 460.903 223.361C455.813 225.104 451.132 227.109 446.837 229.336C434.689 235.636 425.645 243.704 419.263 252.607C415.804 257.432 413.127 262.5 411.16 267.666ZM230.961 267.666H0V195.495C1.48489 195.606 3.00052 195.66 4.54688 195.66C6.44948 195.66 8.39688 195.576 10.3911 195.404C14.6401 195.036 19.0969 194.268 23.7573 193.066C31.8693 190.97 39.9333 190.016 47.9708 190.016C76.7584 190.016 105.239 202.227 134.676 217.842C165.271 234.07 196.897 253.975 230.961 267.666ZM302.773 97.1456C302.183 96.9469 301.592 96.7456 301.003 96.5416C301.227 95.5309 301.383 94.5016 301.464 93.4576C301.873 94.6962 302.311 95.9256 302.773 97.1456ZM217.713 58.4043C214.256 56.8003 210.751 55.2109 207.192 53.6483C209.448 48.3576 210.964 42.4576 211.289 36.2003C212.979 43.8723 215.132 51.3136 217.713 58.4043Z" fill="#1A3241"/>
</g>
<path d="M1333 83.3643L1322.98 82.2452L1328.87 77.2098L1320.03 75.5313L1330.64 68.2578L1317.67 65.4603L1322.98 62.1033C1321.01 61.7303 1316.38 60.9843 1313.55 60.9843L1320.62 54.2703C1320.42 53.8973 1319.56 53.1513 1317.67 53.1513C1318.85 52.9648 1321.33 52.2561 1321.8 50.9133C1318.07 48.4888 1310.13 38.4924 1308.24 17.9029C1306.67 24.8034 1302.46 40.5066 1298.22 48.1158C1297.83 47.7428 1296.57 47.2206 1294.68 48.1158L1298.22 44.1993C1298.02 44.0128 1297.51 43.6398 1297.04 43.6398C1297.24 43.6398 1297.87 43.416 1298.81 42.5208C1296.65 40.2828 1292.33 33.7926 1292.33 25.7359C1291.54 30.3983 1289.38 40.2828 1287.02 42.5208L1288.2 44.7588C1288 45.1318 1285.84 45.3183 1285.84 45.3183L1286.95 47.4302C1286.83 47.3685 1286.52 47.4724 1285.84 48.1158L1287.61 50.3538L1284.66 52.0323C1284.86 52.4053 1285.6 53.1513 1287.02 53.1513L1285.25 54.2703C1283.88 53.5243 1280.89 49.7943 1279.95 40.8423C1279.16 44.3858 1276.53 52.9275 1272.28 58.7463L1265.21 57.6273L1276.41 49.7943L1262.85 47.5563L1268.16 43.6398C1267.37 43.0803 1264.5 42.0732 1259.31 42.5208L1266.98 35.8068C1266.58 35.4338 1265.33 34.6878 1263.44 34.6878C1264.62 34.3148 1266.98 33.4569 1266.98 33.0093C1262.85 28.3469 1254.36 15.2173 1253.42 -0.00109863C1251.06 9.69688 1245.64 29.6523 1242.81 31.8903L1244.58 35.8068C1244.18 36.3663 1242.81 37.5972 1240.45 38.0448L1242.81 41.4018C1242.02 41.5883 1240.21 42.297 1239.27 43.6398L1243.4 47.5563L1237.5 50.3538C1237.9 51.0998 1239.27 52.7037 1241.63 53.1513L1236.32 57.6273C1237.7 58.1868 1240.69 59.7534 1241.63 61.5438L1233.38 64.9008L1238.68 70.4958L1231.02 74.9718C1231.8 75.9043 1233.97 77.8812 1236.32 78.3288H1226.3L1228.07 77.2098L1220.41 73.8528C1220.8 73.1068 1222.18 71.391 1224.53 70.4958L1220.41 68.8173L1223.94 66.0198L1219.23 64.9008L1225.12 60.9843L1217.46 59.3058L1220.41 57.0678C1219.62 56.6948 1217.58 55.9488 1215.69 55.9488L1219.23 52.5918C1219.03 52.4053 1218.4 52.0323 1217.46 52.0323C1217.85 52.0323 1218.87 51.8085 1219.82 50.9133C1217.26 48.8618 1212.04 42.1851 1211.56 31.8903C1210.98 36.3663 1208.97 46.4373 1205.67 50.9133L1206.85 53.1513C1206.65 53.5243 1205.79 54.2703 1203.9 54.2703L1205.67 56.5083C1205.28 56.3218 1204.25 56.2845 1203.31 57.6273L1205.67 59.8653C1205.28 60.4248 1203.9 61.4319 1201.54 60.9843C1201.94 61.7303 1203.08 63.2223 1204.49 63.2223L1200.95 66.0198C1201.54 66.0198 1202.96 66.3555 1203.9 67.6983L1199.19 69.3768L1202.72 72.7338L1198.6 75.5313C1199.38 76.2773 1201.43 77.8812 1203.31 78.3288L1199.19 80.0073L1190.34 80.5667L1186.81 72.1743C1187 73.8528 1186.69 77.8812 1183.86 80.5667L1172.66 81.6858L1172.07 80.5667L1171.48 82.2452L1159.1 83.9237L1154.38 72.7338L1153.79 76.0908L1149.08 75.5313L1152.03 73.2933C1151.44 72.9203 1149.55 72.2862 1146.72 72.7338L1150.85 69.3768C1150.65 69.1903 1150.02 68.8173 1149.08 68.8173C1149.67 68.6308 1150.96 68.1459 1151.44 67.6983C1149.27 64.9008 1144.83 57.6273 1144.36 50.9133C1143.77 54.8298 1142 63.6699 1139.65 67.6983L1140.24 69.3768C1140.04 69.7498 1139.41 70.4958 1138.47 70.4958L1139.65 72.1743C1139.45 72.1743 1138.82 72.3981 1137.88 73.2933L1139.65 75.5313L1137.29 76.6503C1136.11 76.0908 1132.69 75.1956 1128.45 76.0908L1136.11 71.6148C1135.72 71.2418 1134.46 70.4958 1132.57 70.4958C1133.56 70.3093 1135.76 69.7125 1136.7 68.8173C1132.77 66.3928 1124.56 58.5225 1123.14 46.4373C1122.35 50.7268 1119.01 61.2081 1111.94 68.8173L1113.71 71.6148C1113.32 72.1743 1111.94 73.1814 1109.58 72.7338L1112.53 75.5313C1112.14 75.3448 1110.88 75.3075 1108.99 76.6503L1113.12 79.4478L1108.4 81.1263C1107.81 80.0073 1106.52 76.3146 1106.05 70.4958C1105.85 71.9878 1105.34 75.1956 1104.87 76.0908L1097.79 73.8528L1104.28 68.2578L1095.43 66.5793L1106.63 58.7463L1093.08 56.5083L1098.97 53.1513C1097.99 52.4053 1094.61 51.1371 1088.95 52.0323L1096.61 45.3183C1096.61 44.9453 1096.02 44.0874 1093.67 43.6398C1094.45 43.6398 1096.26 43.3041 1097.2 41.9613C1093.27 37.2988 1085.06 23.9455 1083.64 7.83189C1082.66 13.6134 1079.16 28.5333 1073.03 41.9613L1074.8 45.3183C1074.41 45.6913 1073.03 46.5492 1070.68 46.9968L1073.62 50.9133C1073.03 50.9133 1071.38 51.249 1069.5 52.5918L1073.62 56.5083L1067.73 59.3058C1068.32 60.2383 1069.97 62.1033 1071.85 62.1033L1066.55 67.1388C1067.73 67.1388 1070.44 67.9221 1071.85 71.0553L1063.6 74.4123L1068.91 80.0073L1062.42 83.9237C1060.85 80.9398 1057.71 73.9647 1057.71 69.9363C1057.51 72.1743 1056.76 77.3217 1055.35 80.0073C1052.79 78.7018 1046.98 72.9576 1044.15 60.4248C1042.77 64.7143 1038.73 74.9718 1033.54 81.6858L1035.31 84.4832C1034.72 84.8562 1033.07 85.6022 1031.18 85.6022L1033.54 87.8402C1033.14 87.8402 1031.89 88.1759 1030 89.5187L1034.13 92.3162L1028.23 93.9947C1028.43 94.3677 1029.53 95.2256 1032.36 95.6732L1027.05 99.0302C1027.84 99.2167 1030 100.037 1032.36 101.828L1025.87 103.506C1024.3 101.082 1021.16 94.6661 1021.16 88.3997C1020.37 91.9432 1018.21 100.373 1015.85 105.744L1016.44 107.423C1016.44 107.796 1016.09 108.542 1014.67 108.542L1015.85 110.22C1015.46 110.22 1014.56 110.444 1014.08 111.339L1016.44 113.577C1015.66 113.95 1013.97 114.696 1013.5 114.696C1013.89 115.256 1014.91 116.375 1015.85 116.375L1014.08 117.494C1013.1 116.561 1010.55 112.906 1008.19 105.744C1008.19 109.288 1006.54 116.934 999.937 119.172C1000.33 119.545 1001.47 120.179 1002.88 119.732C1002.69 120.105 1001.94 120.851 1000.53 120.851L1004.65 123.089C1003.28 123.089 1000.29 123.201 999.347 123.648C999.366 123.64 1001.71 124.764 1002.88 125.327L996.989 123.648C996.596 122.529 995.81 120.067 995.81 119.172C995.614 120.105 995.103 122.193 994.631 123.089L992.273 121.97C993.059 120.664 995.457 118.053 998.758 118.053L991.684 116.375L998.168 112.458L989.326 111.339L1000.53 106.304L986.968 104.625L992.273 102.387C991.291 101.828 988.029 100.821 982.841 101.268L990.505 96.7922C990.308 96.6057 989.326 96.2327 986.968 96.2327C988.147 96.0462 990.623 95.5613 991.094 95.1137C986.771 92.3162 978.008 83.9237 977.536 72.7338C976.75 76.2773 973.528 85.4903 966.925 93.9947L968.694 96.7922C968.497 97.3517 967.279 98.4707 963.978 98.4707L966.336 100.709C965.55 100.895 963.742 101.492 962.799 102.387L966.336 104.625L962.799 105.744C961.423 104.439 958.319 99.4778 956.904 90.0782C956.511 93.2487 954.9 100.933 951.598 106.304L952.188 108.542C950.026 106.863 945.586 101.604 945.114 93.9947C944.328 96.6057 941.459 103.842 936.272 111.899L937.451 114.137C937.058 114.51 935.8 115.144 933.914 114.696L936.272 116.934C935.879 116.748 934.739 116.71 933.324 118.053L936.272 120.291L932.145 121.41C932.342 121.783 933.324 122.641 935.682 123.089L931.556 125.327C932.538 125.7 934.621 126.669 935.093 127.565L929.787 129.243C928.412 127.378 925.543 121.858 925.071 114.696C924.678 117.121 923.067 123.872 919.766 131.481L920.355 133.719C920.159 133.906 919.53 134.279 918.587 134.279L920.355 136.517C919.962 136.517 919.058 136.629 918.587 137.076C917.408 135.584 914.696 131.034 913.281 124.767C913.085 127.565 911.159 134.279 905.029 138.755C905.225 138.941 905.972 139.314 907.386 139.314L905.618 139.874L909.744 142.671C908.958 142.485 906.679 142.335 903.85 143.231L906.797 144.35L899.134 145.469L905.618 148.266L900.313 148.826L905.029 151.623L900.313 152.742C901.295 152.929 903.496 153.637 904.439 154.98L901.492 156.099L896.255 144.502C896.233 144.445 896.21 144.395 896.186 144.35L896.255 144.502C896.594 145.374 896.633 147.56 894.418 150.504L883.807 148.826L889.702 146.028C888.326 145.655 884.396 145.021 879.68 145.469L887.344 140.993C886.951 140.62 885.693 139.874 883.807 139.874C884.593 139.874 886.401 139.65 887.344 138.755C884.2 136.703 877.204 129.467 874.375 116.934C872.999 121.224 868.952 131.481 863.764 138.195L864.943 140.993C864.943 141.552 864.236 142.559 861.406 142.112L863.702 144.835C863.478 144.747 862.596 144.904 860.227 146.028L864.354 148.826L858.459 150.504C859.245 151.064 861.17 152.295 862.585 152.742L857.28 155.54C858.459 155.726 861.288 156.547 863.175 158.337L854.332 160.575L859.638 164.492L852.564 167.289C853.35 168.035 855.983 169.639 860.227 170.087L850.206 172.884C852.171 174.19 857.162 176.801 861.406 176.801L844.311 184.074C844.507 184.82 845.726 186.76 849.027 188.55C847.651 189.483 843.957 191.571 840.184 192.467H843.132C821.714 205.335 769.681 228.61 732.897 218.763C716.391 215.63 694.187 226.782 685.148 232.75C683.183 233.683 677.602 235.996 671 237.786C684.362 240.21 716.155 249.647 736.434 267.999H1333V83.3643Z" fill="#1A3241"/>
<mask id="mask1_39_57026" style="mask-type:luminance" maskUnits="userSpaceOnUse" x="411" y="221" width="304" height="47">
<path d="M712.532 267.666H655.632L648.483 240.524H625.787C630.689 238.476 634.415 235.736 637.434 232.591C642.768 232.688 648.343 233.436 654.091 234.443C667.926 236.866 682.76 240.792 697.65 240.792C699.982 240.792 702.315 240.695 704.645 240.482C707.793 240.194 710.939 239.692 714.07 238.924C715.168 247.923 714.634 257.861 712.532 267.666ZM505.385 267.666H411.16C413.127 262.5 415.804 257.432 419.263 252.607C425.645 243.704 434.69 235.636 446.838 229.336C451.132 227.109 455.813 225.104 460.903 223.361C462.482 222.821 464.048 222.306 465.6 221.812C473.239 224.192 481.155 225.644 490.131 225.644C494.88 225.644 499.927 225.237 505.385 224.347C508.132 223.899 510.765 223.696 513.293 223.696C536.376 223.696 550.731 240.524 561.676 240.524C561.676 240.524 553.668 241.742 536.483 248.913C523.167 254.471 505.385 267.666 505.385 267.666Z" fill="white"/>
</mask>
<g mask="url(#mask1_39_57026)">
<rect x="410.12" y="221.119" width="306.16" height="47.4933" fill="#1A3241"/>
</g>
<mask id="mask2_39_57026" style="mask-type:luminance" maskUnits="userSpaceOnUse" x="0" y="27" width="435" height="241">
<path d="M379.019 267.666H230.961C196.897 253.975 165.271 234.07 134.676 217.842C105.239 202.227 76.7584 190.016 47.9708 190.016C39.9333 190.016 31.8693 190.97 23.7573 193.066C19.0969 194.268 14.6401 195.036 10.3911 195.404C8.39688 195.576 6.44948 195.66 4.54688 195.66C3.00052 195.66 1.48489 195.606 0 195.495V102.915C2.87396 102.654 5.74896 102.399 8.62448 102.152C6.92448 100.611 5.22396 99.0709 3.52344 97.5296C6.07969 97.0176 8.63489 96.5029 11.1901 95.9896C8.06093 93.7696 4.93229 91.5483 1.80364 89.3283C5.53803 88.6323 9.27136 87.9376 13.0057 87.2429C11.4802 86.1496 9.95521 85.0576 8.42969 83.9656C10.5161 83.2309 12.6589 82.8589 14.8021 82.8589C15.4088 82.8589 16.0156 82.8883 16.6213 82.9483C14.5079 80.9189 12.3948 78.8923 10.2818 76.8629C11.1109 76.2563 12.0255 75.9243 12.9469 75.8749C11.7427 75.6843 10.5625 75.1509 9.49115 74.3043C15.5755 66.7376 20.4401 56.1883 21.0557 44.3643C23.1375 53.8189 25.9328 62.9163 29.3563 71.4456C30.0303 71.2803 30.7131 71.1963 31.3953 71.1963C31.6817 71.1963 31.9688 71.2109 32.2552 71.2416C31.2437 70.2069 30.2317 69.1736 29.2197 68.1403C29.6251 67.8243 30.0729 67.6563 30.5235 67.6363C29.9375 67.5429 29.362 67.2749 28.8412 66.8363C31.7547 62.9789 34.0839 57.6029 34.3792 51.5776C35.4588 56.7989 36.9355 61.8096 38.7656 66.4656C38.5573 67.0269 38.3489 67.5869 38.1407 68.1469C38.5833 68.7123 39.1349 69.0576 39.7 69.1229C39.3489 69.6723 38.9979 70.2216 38.6473 70.7709C39.2027 70.8083 39.75 71.1216 40.1948 71.6563C39.6531 72.2669 39.112 72.8789 38.5708 73.4909C39.3333 73.8709 40.0964 74.2523 40.8588 74.6349C40.4063 75.3536 39.8088 75.8349 39.1781 75.9936C39.5303 76.3403 39.8812 76.6869 40.2333 77.0323C42.6417 73.4016 44.2735 69.3243 44.6125 64.9883C46.414 70.4389 48.7521 75.7109 51.5651 80.7163C53.5521 80.3163 55.5391 79.9176 57.526 79.5189C54.3969 77.2976 51.2683 75.0776 48.1391 72.8563C51.8735 72.1616 55.6073 71.4669 59.3417 70.7709C57.8161 69.6789 56.2912 68.5869 54.7656 67.4936C56.8531 66.7576 58.9973 66.3869 61.1417 66.3869C61.7473 66.3869 62.3531 66.4163 62.9573 66.4749C60.8437 64.4483 58.7312 62.4203 56.6177 60.3923C57.4469 59.7843 58.3615 59.4523 59.2823 59.4043C58.0787 59.2123 56.8984 58.6803 55.8265 57.8336C61.9115 50.2656 66.776 39.7176 67.3917 27.8936C69.6469 38.1376 72.7303 47.9696 76.5536 57.1043C76.1188 58.2043 75.6828 59.3069 75.2473 60.4083C76.1724 61.5163 77.3235 62.1923 78.5041 62.3189C77.7708 63.3976 77.0375 64.4749 76.3052 65.5536C77.4661 65.6269 78.6093 66.2416 79.5369 67.2909C78.4068 68.4909 77.2765 69.6909 76.1464 70.8896C77.7396 71.6376 79.3317 72.3856 80.9245 73.1349C79.9792 74.5429 78.7323 75.4909 77.4151 75.7989C78.8959 77.1723 80.3755 78.5429 81.8557 79.9163C80.2473 80.7189 78.7303 81.9323 77.388 83.4869C79.7099 84.4936 82.0307 85.4989 84.3521 86.5056C82.8265 88.1709 81.3021 89.8376 79.7776 91.5029C81.9584 92.8736 84.1396 94.2456 86.3203 95.6163C85.0229 96.8949 83.6088 97.9016 82.1323 98.6189C83.8844 98.6216 85.6355 98.6336 87.3864 98.6523C87.5287 98.2563 87.6823 97.8656 87.814 97.4683C87.8448 97.8696 87.9145 98.2629 87.9812 98.6576C88.8563 98.6683 89.7303 98.6883 90.6047 98.7016C90.2177 98.4203 89.824 98.1603 89.4421 97.8629C91.6068 96.8776 93.7724 95.8936 95.9369 94.9096C94.9864 93.5149 93.8645 92.3829 92.6448 91.5896C93.8188 91.1949 94.9932 90.8003 96.1683 90.4043C95.0797 89.4176 93.9917 88.4323 92.9036 87.4469C94.3531 87.1549 95.8016 86.8629 97.2511 86.5723C95.4765 85.3123 93.7016 84.0536 91.9276 82.7949C94.0459 82.4003 96.1625 82.0069 98.2803 81.6123C97.4156 80.9923 96.5511 80.3723 95.6855 79.7536C96.8693 79.3363 98.0855 79.1256 99.3011 79.1256C99.6448 79.1256 99.988 79.1429 100.331 79.1763C99.1323 78.0269 97.9344 76.8763 96.736 75.7269C97.2156 75.3736 97.7464 75.1869 98.2803 75.1669C97.586 75.0629 96.9052 74.7629 96.2869 74.2749C99.7375 69.9829 102.497 64.0016 102.846 57.2976C104.125 63.1056 105.873 68.6816 108.041 73.8616C107.794 74.4856 107.547 75.1109 107.301 75.7349C107.825 76.3629 108.478 76.7456 109.147 76.8189C108.732 77.4296 108.316 78.0416 107.901 78.6536C108.559 78.6936 109.207 79.0429 109.733 79.6389C109.093 80.3189 108.451 80.9989 107.81 81.6803C108.714 82.1029 109.617 82.5283 110.52 82.9523C109.984 83.7509 109.277 84.2883 108.53 84.4643C109.369 85.2429 110.208 86.0203 111.048 86.7989C110.135 87.2536 109.275 87.9416 108.514 88.8229C109.831 89.3936 111.147 89.9656 112.464 90.5349C111.599 91.4789 110.734 92.4229 109.869 93.3683C111.106 94.1456 112.343 94.9229 113.579 95.7003C112.364 96.9003 110.969 97.6856 109.529 97.9829C110.675 98.5069 111.821 99.0296 112.967 99.5536C115.652 99.7163 118.336 99.9043 121.018 100.114C122.065 97.9549 122.982 95.7349 123.735 93.4576C123.935 96.0083 124.879 98.4043 126.264 100.558C129.471 100.848 132.675 101.171 135.879 101.535C135.96 101.3 136.052 101.072 136.131 100.836C136.149 101.087 136.204 101.33 136.239 101.578C139.588 101.962 142.936 102.378 146.28 102.847C146.665 102.9 147.048 102.963 147.432 103.018C149.141 99.9723 150.572 96.7723 151.667 93.4576C151.747 94.4709 151.947 95.4589 152.24 96.4176C153.456 96.1776 154.673 95.9363 155.892 95.6963C155.161 95.1389 154.431 94.5829 153.7 94.0243C154.699 93.6509 155.725 93.4616 156.752 93.4616C157.043 93.4616 157.333 93.4763 157.623 93.5069C156.611 92.4723 155.599 91.4389 154.587 90.4069C154.992 90.0896 155.44 89.9216 155.891 89.9029C155.304 89.8083 154.729 89.5403 154.208 89.1016C157.121 85.2443 159.451 79.8683 159.745 73.8429C160.825 79.0643 162.303 84.0749 164.133 88.7309C163.924 89.2923 163.716 89.8536 163.508 90.4136C163.951 90.9776 164.501 91.3229 165.067 91.3883C164.716 91.9376 164.364 92.4869 164.013 93.0363C164.569 93.0736 165.117 93.3869 165.561 93.9216C165.02 94.5323 164.479 95.1443 163.939 95.7563C164.644 96.1083 165.349 96.4629 166.056 96.8136C167.892 96.4456 169.763 96.2509 171.633 96.2509C172.215 96.2509 172.795 96.2696 173.375 96.3083C171.261 94.9563 169.148 93.6056 167.036 92.2536C167.881 91.8416 168.817 91.6216 169.757 91.5963C168.533 91.4736 167.333 91.1229 166.245 90.5496C172.329 85.5069 177.193 78.4789 177.809 70.6016C180.065 77.4256 183.148 83.9763 186.972 90.0643C186.536 90.7976 186.101 91.5296 185.665 92.2643C186.589 93.0029 187.741 93.4536 188.921 93.5376C188.188 94.2563 187.456 94.9749 186.723 95.6923C187.884 95.7416 189.027 96.1509 189.955 96.8509C188.825 97.6496 187.695 98.4496 186.564 99.2496C187.845 99.6483 189.127 100.05 190.407 100.451C191.471 97.7749 192.187 94.8003 192.341 91.6416C192.688 93.3216 193.091 94.9696 193.52 96.6003C195.517 95.9269 197.516 95.2549 199.515 94.5829C197.595 92.8443 195.676 91.1056 193.757 89.3656C196.312 88.8536 198.868 88.3403 201.423 87.8256C198.295 85.6056 195.165 83.3843 192.036 81.1643C195.771 80.4696 199.505 79.7736 203.24 79.0789C201.713 77.9856 200.189 76.8949 198.663 75.8016C200.751 75.0656 202.893 74.6949 205.036 74.6949C205.643 74.6949 206.249 74.7243 206.855 74.7843C204.741 72.7563 202.628 70.7283 200.516 68.7003C201.344 68.0923 202.259 67.7603 203.18 67.7109C201.976 67.5203 200.796 66.9883 199.724 66.1403C202.589 62.5776 205.184 58.3536 207.192 53.6483C210.751 55.2109 214.256 56.8003 217.713 58.4043C218.579 60.7816 219.492 63.1189 220.451 65.4123C220.016 66.5136 219.581 67.6136 219.145 68.7149C220.071 69.8229 221.221 70.4989 222.401 70.6269C221.669 71.7043 220.936 72.7829 220.203 73.8616C221.364 73.9336 222.507 74.5483 223.435 75.5989C222.304 76.7989 221.175 77.9989 220.044 79.1976C221.636 79.9456 223.229 80.6949 224.823 81.4416C223.877 82.8509 222.631 83.7976 221.313 84.1083C222.793 85.4789 224.273 86.8523 225.753 88.2229C224.144 89.0269 222.628 90.2403 221.285 91.7963C223.608 92.8016 225.928 93.8069 228.251 94.8123C226.724 96.4789 225.2 98.1443 223.675 99.8096C225.62 101.032 227.565 102.256 229.511 103.478C231.528 99.9816 233 95.6803 233.229 90.9789C233.861 94.0336 234.644 97.0043 235.54 99.8869C240.497 95.0736 244.235 88.8763 244.769 82.0376C247.024 88.8629 250.108 95.4136 253.931 101.5C253.496 102.234 253.06 102.968 252.625 103.7C253.549 104.439 254.701 104.89 255.881 104.975C255.148 105.692 254.415 106.41 253.683 107.13C254.844 107.179 255.987 107.587 256.915 108.288C255.784 109.086 254.655 109.886 253.524 110.686C255.117 111.184 256.709 111.682 258.303 112.18C257.357 113.119 256.111 113.751 254.793 113.956C256.273 114.87 257.753 115.784 259.233 116.698C257.625 117.234 256.108 118.042 254.765 119.078C256.684 119.632 258.6 120.186 260.517 120.739C262.637 117.184 264.195 112.754 264.432 107.902C265.512 113.122 266.988 118.131 268.819 122.788C268.611 123.35 268.403 123.911 268.193 124.472C268.637 125.036 269.188 125.38 269.753 125.446C269.401 125.995 269.051 126.544 268.7 127.094C269.256 127.132 269.803 127.444 270.248 127.979C269.707 128.591 269.165 129.202 268.624 129.814C269.387 130.195 270.149 130.576 270.912 130.958C270.459 131.676 269.863 132.159 269.232 132.316C269.656 132.736 270.08 133.154 270.505 133.574C272.483 130.227 274.101 126.668 275.321 122.978C275.696 127.778 278.66 132.058 282.367 135.13C281.704 135.478 280.972 135.694 280.227 135.767C280.8 135.783 281.369 135.916 281.884 136.168C280.597 136.991 279.311 137.813 278.024 138.636C278.392 138.613 278.76 138.6 279.129 138.6C280.435 138.6 281.741 138.751 283.013 139.051C282.084 139.494 281.155 139.936 280.225 140.38L280.249 140.384C281.879 139.89 283.507 139.396 285.136 138.903C285.464 137.635 285.697 136.337 285.8 135.016C286.169 136.134 286.569 137.242 286.983 138.343C287.748 138.111 288.515 137.879 289.281 137.646C287.605 136.008 285.627 134.679 283.476 133.748C285.547 133.283 287.617 132.819 289.689 132.355C287.769 131.195 285.851 130.038 283.932 128.879C286.487 128.536 289.043 128.194 291.599 127.854C288.469 126.372 285.34 124.894 282.212 123.414C285.945 122.951 289.68 122.488 293.413 122.024C291.888 121.298 290.363 120.57 288.837 119.842C290.925 119.351 293.069 119.104 295.213 119.104C295.819 119.104 296.425 119.123 297.029 119.163C294.916 117.811 292.804 116.462 290.689 115.11C291.535 114.696 292.471 114.476 293.412 114.452C292.188 114.33 290.988 113.978 289.899 113.406C295.177 109.031 299.537 103.163 301.003 96.5416C301.592 96.7456 302.183 96.9469 302.773 97.1456C304.863 102.644 307.497 107.938 310.625 112.919C310.191 113.652 309.755 114.387 309.32 115.12C310.244 115.859 311.396 116.31 312.576 116.394C311.843 117.111 311.111 117.83 310.377 118.548C311.539 118.596 312.681 119.007 313.609 119.706C312.479 120.506 311.349 121.306 310.219 122.104C311.507 122.507 312.796 122.91 314.084 123.312C316.685 119.54 318.693 114.532 318.967 108.968C320.047 114.188 321.523 119.199 323.353 123.855C323.145 124.416 322.937 124.976 322.728 125.538L322.852 125.672C326.268 121.966 328.759 117.408 329.148 112.424C330.976 117.958 333.476 123.267 336.575 128.202C336.223 128.796 335.869 129.391 335.516 129.986C336.265 130.586 337.2 130.95 338.156 131.019C337.561 131.6 336.968 132.184 336.373 132.766C337.315 132.806 338.241 133.136 338.993 133.704C338.077 134.352 337.161 135.001 336.245 135.647C337.536 136.051 338.828 136.456 340.119 136.859C339.352 137.622 338.341 138.132 337.275 138.301C338.473 139.04 339.673 139.782 340.873 140.521C339.569 140.958 338.339 141.613 337.252 142.452C338.885 142.923 340.52 143.395 342.153 143.867C344.268 140.313 345.821 135.89 346.059 131.043C347.139 136.264 348.615 141.275 350.447 145.931C350.237 146.491 350.029 147.054 349.82 147.613C350.264 148.179 350.815 148.523 351.38 148.587C351.028 149.136 350.677 149.687 350.327 150.237C350.693 150.26 351.053 150.415 351.385 150.664C353.329 147.354 354.923 143.836 356.128 140.19C356.503 144.988 359.465 149.27 363.172 152.342C362.509 152.691 361.777 152.906 361.033 152.979C361.605 152.995 362.176 153.128 362.691 153.38C361.404 154.203 360.116 155.027 358.829 155.849C359.197 155.825 359.567 155.813 359.936 155.813C361.241 155.813 362.548 155.964 363.819 156.261C362.889 156.706 361.961 157.148 361.031 157.592C363.305 157.873 365.581 158.156 367.855 158.439C365.949 159.34 364.044 160.242 362.137 161.142C363.693 161.351 365.251 161.559 366.807 161.767C365.639 162.473 364.469 163.179 363.301 163.884C364.563 164.168 365.824 164.451 367.085 164.733C365.775 165.302 364.569 166.111 363.549 167.108C364.236 167.316 364.924 167.525 365.612 167.733C367.553 164.425 369.144 160.913 370.348 157.27C370.489 159.079 370.999 160.811 371.776 162.436C374.801 162.061 377.829 161.687 380.855 161.309C379.329 160.583 377.804 159.855 376.279 159.127C378.367 158.636 380.511 158.388 382.655 158.388C383.26 158.388 383.865 158.408 384.471 158.448C382.357 157.097 380.244 155.747 378.132 154.395C378.976 153.982 379.913 153.763 380.853 153.737C379.629 153.615 378.428 153.263 377.34 152.691C383.424 147.648 388.289 140.622 388.905 132.743C391.161 139.567 394.244 146.119 398.067 152.204C397.632 152.939 397.196 153.672 396.761 154.406C397.685 155.143 398.837 155.594 400.017 155.679C399.284 156.397 398.552 157.116 397.819 157.834C398.979 157.883 400.123 158.292 401.051 158.991C399.92 159.791 398.791 160.59 397.66 161.39C399.252 161.887 400.845 162.385 402.439 162.884C401.492 163.823 400.245 164.455 398.929 164.66C400.409 165.575 401.889 166.488 403.369 167.403C401.76 167.937 400.244 168.747 398.901 169.783C401.223 170.454 403.544 171.123 405.865 171.794C404.34 172.903 402.815 174.013 401.291 175.123C403.471 176.036 405.652 176.949 407.833 177.863C405.689 179.271 403.229 180.194 400.689 180.544C403.665 181.449 406.643 182.356 409.619 183.26C406.796 185.149 403.433 186.223 400.037 186.318C404.711 188.694 409.501 190.84 414.385 192.746C413.613 194.43 412.332 195.876 410.751 196.846C412.933 198.363 415.325 199.579 417.837 200.448C417.384 200.458 416.931 200.468 416.477 200.478C423.013 203.161 428.959 205.906 434.553 208.546C432.051 213.515 429.251 218.399 426.177 223.134C416.913 237.402 405.179 250.284 391.719 259.887C387.637 262.799 383.397 265.409 379.019 267.666ZM363.389 176.466C363.24 176.533 363.089 176.604 362.94 176.675C363.297 176.735 363.656 176.795 364.015 176.854L364.241 176.713C363.948 176.668 363.665 176.576 363.389 176.466ZM359.737 173.276C360.925 173.276 362.111 173.36 363.291 173.502L362.949 173.26C363.515 172.834 364.211 172.584 364.917 172.555C364.7 172.343 364.484 172.13 364.267 171.915C362.744 172.447 361.196 172.904 359.628 173.276C359.664 173.276 359.7 173.276 359.737 173.276ZM376.068 170.999C375.363 171.449 374.657 171.902 373.952 172.352C375.011 172.115 376.071 171.876 377.131 171.64C376.776 171.425 376.423 171.213 376.068 170.999ZM372.721 164.151C373.497 165.395 374.42 166.558 375.447 167.619C376.644 167.459 377.841 167.299 379.039 167.139C376.933 166.142 374.828 165.147 372.721 164.151ZM339.256 155.783C338.896 155.82 338.535 155.847 338.172 155.856C339.195 156.376 340.228 156.876 341.264 157.368L341.335 157.354C340.641 156.83 339.948 156.306 339.256 155.783ZM350.751 152.391C350.585 152.58 350.417 152.768 350.251 152.956C350.581 153.121 350.913 153.287 351.244 153.452L351.341 153.385C351.145 153.055 350.948 152.723 350.751 152.391ZM343.067 149.819C341.697 150.504 340.217 150.968 338.701 151.176C339.392 151.387 340.085 151.597 340.776 151.808C340.523 151.613 340.268 151.419 340.013 151.225C341.012 150.851 342.039 150.661 343.065 150.661C343.355 150.661 343.645 150.676 343.936 150.707C343.645 150.409 343.357 150.116 343.067 149.819ZM294.645 147.494C294.871 147.587 295.095 147.684 295.32 147.778C295.453 147.778 295.585 147.77 295.719 147.77C295.359 147.685 295.003 147.585 294.645 147.494ZM341.249 145.28C340.563 145.78 339.876 146.28 339.188 146.78C339.793 147.034 340.397 147.288 341.003 147.54C341.38 147.272 341.789 147.122 342.203 147.103C341.617 147.009 341.043 146.742 340.521 146.303C340.769 145.973 341.012 145.631 341.249 145.28ZM270.052 135.359C269.763 135.622 269.481 135.908 269.219 136.235C269.453 136.343 269.688 136.451 269.923 136.559C270.137 136.448 270.347 136.325 270.536 136.175C270.375 135.903 270.213 135.63 270.052 135.359ZM324.805 132.786C324.605 132.967 324.397 133.118 324.179 133.224C324.636 133.227 325.095 133.234 325.553 133.263C325.304 133.104 325.053 132.944 324.805 132.786ZM313.192 129.356C312.591 129.699 312.008 130.074 311.46 130.496C312.176 130.703 312.893 130.911 313.609 131.118C314.109 131.019 314.611 130.918 315.112 130.819C314.472 130.332 313.832 129.844 313.192 129.356ZM259.708 129.09C258.683 129.436 257.627 129.691 256.553 129.84C257.025 129.983 257.496 130.127 257.968 130.27C258.837 130.098 259.707 129.926 260.577 129.754C260.288 129.532 259.997 129.311 259.708 129.09ZM313.812 124.5C313.099 124.934 312.312 125.247 311.488 125.375C312.968 126.29 314.448 127.203 315.928 128.118C315.387 128.298 314.863 128.519 314.347 128.758C314.907 128.648 315.469 128.588 316.033 128.588C316.303 128.588 316.573 128.602 316.843 128.631C315.831 127.596 314.819 126.564 313.807 125.53C314.212 125.214 314.661 125.046 315.111 125.028C314.664 124.956 314.227 124.774 313.812 124.5ZM258.907 123.143C258.323 123.568 257.739 123.994 257.155 124.418C258.327 124.908 259.497 125.4 260.669 125.89C260.204 125.415 259.739 124.939 259.273 124.464C259.677 124.147 260.127 123.98 260.576 123.962C259.991 123.867 259.415 123.598 258.895 123.16L258.907 123.143ZM226.453 115.74C225.137 116.254 223.783 116.556 222.421 116.614C223.681 117.575 224.949 118.506 226.225 119.416C225.761 118.97 225.299 118.522 224.833 118.075C225.676 117.895 226.519 117.714 227.36 117.534L227.237 117.46C227.656 117.404 228.076 117.348 228.495 117.292L228.505 117.29C227.821 116.772 227.137 116.256 226.453 115.74ZM228.076 105.71C226.495 106.824 224.805 107.59 223.073 107.948C225.071 108.86 227.067 109.771 229.064 110.683C229.46 110.627 229.859 110.599 230.257 110.599C230.54 110.599 230.823 110.614 231.105 110.642C230.093 109.608 229.081 108.576 228.071 107.542C228.475 107.226 228.923 107.059 229.373 107.039C228.788 106.946 228.213 106.676 227.692 106.239C227.821 106.066 227.948 105.887 228.076 105.71ZM238.765 107.695C239.289 107.695 239.812 107.71 240.335 107.744C239.415 107.155 238.495 106.568 237.575 105.979C237.38 106.503 237.185 107.027 236.991 107.55L237.163 107.736C237.697 107.711 238.231 107.695 238.765 107.695ZM187.927 107.556L187.805 107.643L187.84 107.651L188.001 107.578L187.927 107.556ZM167.105 104.6C166.94 104.792 166.775 104.983 166.609 105.176C167.055 105.116 167.5 105.056 167.943 104.996C167.664 104.864 167.384 104.734 167.105 104.6ZM193.595 96.8763C194.245 99.3269 194.984 101.714 195.808 104.026C196.908 103.526 198.008 103.026 199.107 102.526C197.508 100.179 195.632 98.2616 193.595 96.8763ZM189.805 101.858C189.189 102.183 188.523 102.412 187.833 102.52C188.252 102.779 188.672 103.038 189.091 103.296C189.339 102.828 189.579 102.351 189.805 101.858ZM236.568 103.011L236.58 103.043L236.717 103.032L236.568 103.011ZM153.157 98.7456C153.427 99.2976 153.728 99.8349 154.055 100.359C154.377 100.291 154.699 100.223 155.021 100.152C154.4 99.6843 153.779 99.2149 153.157 98.7456ZM165.907 97.3309C165.508 97.8083 165.039 98.1363 164.545 98.2576C165.013 98.7203 165.48 99.1816 165.948 99.6416C167.219 99.4843 168.489 99.3269 169.759 99.1696C168.475 98.5563 167.191 97.9443 165.907 97.3309ZM54.2995 92.9763C53.988 93.1949 53.6776 93.4149 53.3672 93.6349C53.9792 93.8269 54.5912 94.0189 55.2031 94.2096C54.9115 93.7829 54.6079 93.3736 54.2995 92.9763ZM53.714 84.5509C53.2989 85.2523 52.8833 85.9509 52.4683 86.6509C52.6803 86.8203 52.9068 86.9696 53.1407 87.1083C53.9651 86.8296 54.7912 86.5523 55.6167 86.2749C54.9823 85.6989 54.3479 85.1256 53.714 84.5509ZM29.9953 73.0269C30.0599 73.1829 30.1208 73.3416 30.1855 73.4963L30.524 73.4296C30.3473 73.2963 30.1719 73.1616 29.9953 73.0269Z" fill="white"/>
</mask>
<g mask="url(#mask2_39_57026)">
<rect x="-0.680176" y="27.1189" width="435.893" height="241.493" fill="#1A3241"/>
</g>
<mask id="mask3_39_57026" style="mask-type:luminance" maskUnits="userSpaceOnUse" x="648" y="168" width="105" height="71">
<path d="M714.069 238.924C714.024 238.558 713.976 238.19 713.925 237.825C712.56 227.94 709.184 219.266 703.705 213.272C698.789 207.892 692.18 204.671 683.815 204.671C677.517 204.671 670.225 206.496 661.909 210.597C660.843 211.124 659.783 211.625 658.725 212.106C655.113 213.746 651.547 215.124 648.016 216.272C652.181 208.319 656.396 200.513 665.232 195.649C694.757 179.407 719.699 171.475 742.264 168.654C743.984 169.468 745.489 170.615 746.783 172.031C749.824 175.359 751.699 180.175 752.459 185.664C753.28 191.618 752.791 198.361 751.052 204.858C749.523 210.572 747.027 216.094 743.608 220.716C741.92 222.997 740.008 225.06 737.875 226.819C735.561 228.727 733.227 230.397 730.875 231.858C725.351 235.283 719.732 237.537 714.069 238.924Z" fill="white"/>
</mask>
<g mask="url(#mask3_39_57026)">
<rect x="646.92" y="167.386" width="107.093" height="72.4267" fill="#1A3241"/>
</g>
<mask id="mask4_39_57026" style="mask-type:luminance" maskUnits="userSpaceOnUse" x="637" y="204" width="78" height="37">
<path d="M697.65 240.792C682.76 240.792 667.926 236.866 654.091 234.443C648.343 233.436 642.768 232.688 637.434 232.591C642.063 227.763 645.027 221.98 648.016 216.272C651.547 215.124 655.114 213.746 658.726 212.106C659.783 211.625 660.843 211.124 661.91 210.597C670.226 206.496 677.518 204.671 683.815 204.671C692.18 204.671 698.79 207.892 703.706 213.272C709.184 219.266 712.56 227.94 713.926 237.825C713.976 238.19 714.024 238.558 714.07 238.924C710.939 239.692 707.794 240.194 704.646 240.482C702.315 240.695 699.982 240.792 697.65 240.792Z" fill="white"/>
</mask>
<g mask="url(#mask4_39_57026)">
<rect x="636.12" y="203.786" width="78.8267" height="37.8933" fill="#1A3241"/>
</g>
</svg>
