<svg width="150" height="35" viewBox="0 0 150 35" fill="none" xmlns="http://www.w3.org/2000/svg">
<path d="M125.926 20.6856C112.593 -0.638188 90.7413 0.287958 78.3957 4.2368C66.0494 -6.93298 43.2105 6.23466 48.1481 17.7472C37.6549 12.6515 9.25986 25.4618 0 35H150C137.16 27.4972 130.658 16.9012 125.926 20.6856Z" fill="#F0FAF3"/>
<path fill-rule="evenodd" clip-rule="evenodd" d="M47.6133 12.8277C53.6445 10.9826 60.3522 9.73643 62.9628 11.824C60.0821 13.3048 55.0615 16.6613 58.0245 18.2408C60.9051 16.4309 69.506 13.6997 80.864 17.2536C83.5389 12.9757 92.5924 6.69047 107.407 15.7728C100.411 18.4054 90.6171 23.8679 107.407 24.6577C113.58 23.3414 125.185 21.7948 122.222 26.1385C122.016 29.1001 125.062 34.6285 138.889 33.049C141.403 32.7618 143.764 32.5573 145.963 32.4188C142.684 30.1439 139.88 27.7746 137.445 25.7168C132.288 21.3603 128.784 18.3998 125.926 20.6856C112.592 -0.638188 90.7412 0.287958 78.3956 4.2368C67.7987 -5.3503 49.472 2.99175 47.6133 12.8277Z" fill="white"/>
</svg>
