<svg width="505" height="43" viewBox="0 0 505 43" fill="none" xmlns="http://www.w3.org/2000/svg">
<path d="M102 27.1618C91.2 5.56179 73.5005 6.49994 63.5005 10.4999C53.5005 -8.00006 29.5005 8.49994 33.5 20.1617C25.0005 14.9999 7.50049 31.9999 0 41.6617H102H303C318.6 42.991 459.5 41.4411 464 40.5H505C477.8 28.9 456.5 26 438 30.5C443 9.5 407.5 9 401.5 21.6617C392.3 13.2617 380.667 15.1617 376 17.1617C352.8 -2.03832 332.333 11.1617 325 20.1617C304.6 6.96168 289.167 19.6617 284 27.6617C280.8 26.0616 277 28.3284 275.5 29.6617C254.7 -16.3383 211.5 0.661688 202 17.6617C193.6 10.8617 183.5 13.4951 179.5 15.6618C151.9 -2.73825 132.667 14.3284 126.5 25.1618C116.1 17.5618 105.833 23.3285 102 27.1618Z" fill="#F0FAF3"/>
<path fill-rule="evenodd" clip-rule="evenodd" d="M20.4868 22.5388C26.4554 24.5744 34.5352 25.4899 45 22.5C42 17.3333 44 5.50005 60.5 19.5C61.4914 19.5431 62.6496 19.6136 63.8871 19.6888C72.2185 20.1954 84.1446 20.9205 73 14.9999C75 14.9999 81.2 15.5999 90 17.9999C77.6666 23.6666 61.1 38.0998 95.5 34.4999C95.1666 31.5 99.6 26.4 120 30C115.667 31.5 108.5 34.4999 114.5 34.4999C116.424 33.7669 118.605 32.3941 120.998 30.8883C127.308 26.9164 135.089 22.0195 143.5 25.5C138.667 17.8333 143.2 14.0001 164 24.0001C165.333 20.5001 176 19.5001 192 30C191.785 30.4651 191.571 30.9004 191.371 31.3054C188.781 36.5597 188.719 36.6847 224 30C224.167 27.1666 222.8 21.0999 216 19.5C213.5 15.8334 212.2 9.40009 227 13.0001C234.667 4.16673 247.5 14.5001 235.5 24.0001C233.427 29.5271 228.395 31.2356 228.516 31.7638C228.57 32.0001 229.656 32.0001 232.5 32.0001C236 30.5001 241.9 31.8 249.5 37C249.833 34.8333 249.9 30.4 247.5 30C255.167 28.1666 269.1 29 265.5 39C265.556 39 265.985 38.8134 266.707 38.4993C272.461 35.9964 296.835 25.3941 299.5 36.5C305 32.8333 317.8 27.7 325 36.5C337.5 21.8333 359.5 8.50004 359.5 30C354.833 29.5 341.4 32.1 343 36.5C343.568 37.2567 344.565 37.2261 346.506 37.1664C349.695 37.0683 355.432 36.8919 366 40C366.667 39.1667 367.2 37.2 364 36C371.5 32.6667 384.2 30 381 38C388.333 33.8333 401 28.7999 411 36C411.929 37.3266 418.791 37.555 425.99 37.7947C427.836 37.8562 429.704 37.9184 431.5 38C439.019 35.4552 461.486 31.674 476.803 31.0694C462.264 27.7659 449.583 27.6825 438 30.5C443 9.5 407.5 9 401.5 21.6617C392.3 13.2617 380.667 15.1617 376 17.1617C352.8 -2.03832 332.333 11.1617 325 20.1617C304.6 6.96168 289.167 19.6617 284 27.6617C280.8 26.0616 277 28.3284 275.5 29.6617C254.7 -16.3383 211.5 0.661691 202 17.6617C193.6 10.8617 183.5 13.4951 179.5 15.6618C151.9 -2.73825 132.667 14.3284 126.5 25.1618C116.1 17.5618 105.833 23.3285 102 27.1618C91.2 5.5618 73.5004 6.49994 63.5004 10.4999C53.5004 -8.00006 29.5004 8.49994 33.5 20.1617C30.1652 18.1365 25.445 19.5228 20.4868 22.5388Z" fill="white"/>
</svg>
