<svg width="344" height="58" viewBox="0 0 344 58" fill="none" xmlns="http://www.w3.org/2000/svg">
<path d="M73.5766 49.7762C47.6964 45.7814 13.2609 52.118 0 57.6282H343.5C329.17 49.7762 284.04 44.2661 275.057 49.7762C287.462 39.858 278.907 26.3582 253.882 35.1744C275.057 12.7206 228.216 -0.503672 213.672 15.7511C213.672 5.14421 189.502 -1.33019 182.658 15.7511C165.547 -17.3096 77.2126 7.07276 119.776 39.307C87.2653 22.5011 65.4489 40.96 73.5766 49.7762Z" fill="#F0FAF3"/>
<path fill-rule="evenodd" clip-rule="evenodd" d="M73.5024 40.8939C85.5134 44.3388 100.137 45.6187 108.012 39.1692C113.644 43.8069 137.528 41.2355 129.401 30.353C141.164 32.4193 153.313 30.1877 150.575 20.1593C151.645 24.0766 153.427 29.802 169.397 31.7305C155.708 30.0775 133.892 43.2861 169.397 49.363C185.225 52.0719 210.463 44.1283 197.202 32.5571C195.624 31.1795 190.144 31.7305 184.369 33.1081C185.439 24.8429 198.272 14.3736 217.735 27.1847C213.315 26.7255 205.544 29.1132 206.399 31.7305C209.191 40.2712 226.676 44.6242 253.026 40.5468C252.1 42.7049 250.674 58.0414 281.473 53.0823C289.299 57.8708 310.084 57.7947 323.655 51.3358C304.972 47.4383 281.296 45.9492 275.057 49.7762C287.462 39.858 278.907 26.3582 253.882 35.1744C275.057 12.7207 228.216 -0.503659 213.672 15.7512C213.672 5.14422 189.503 -1.33018 182.658 15.7512C165.547 -17.3096 77.2128 7.07277 119.776 39.307C96.5659 27.3089 78.8065 33.2848 73.5024 40.8939Z" fill="white"/>
</svg>
