<svg width="247" height="35" viewBox="0 0 247 35" fill="none" xmlns="http://www.w3.org/2000/svg">
<path d="M22 20.3614C18.8 18.7614 1.5 33.028 0 34.3614C15.6 35.6908 195 34.1409 199.5 33.1997H247C222 17.5 196 17 196 17C189 -4.5 150.5 1.36142 139.5 14.3614C130.3 5.96142 118.667 7.86142 114 9.86142C90.8 -9.33858 70.3333 3.86142 63 12.8614C42.6 -0.338582 27.1666 12.3614 22 20.3614Z" fill="#F0FAF3"/>
<path fill-rule="evenodd" clip-rule="evenodd" d="M27.6851 13.9857C34.664 17.3578 42.3135 19.7691 48.5002 18.5C58.3335 13.8333 84.3002 9 81.5002 17C64.5002 21.5 73.3002 29.7 108.5 18.5C123.5 12.5 134 14 134 21C117.167 25.3333 90.3002 33.3 123.5 30.5C133.334 27.8333 154.2 23.3 159 26.5C159 18 166 -0.500077 173.5 14C180 3.99992 187.5 19.5 182.5 29C191.883 29.7819 196.293 27.0317 199.895 24.7857C203.203 22.7227 205.83 21.085 211 23C211.532 25.1273 223.802 26.3213 236.378 27.3941C215.147 17.3682 196 17 196 17C189 -4.5 150.5 1.36142 139.5 14.3614C130.3 5.96142 118.667 7.86142 114 9.86142C90.8002 -9.33858 70.3335 3.86142 63.0002 12.8614C47.6781 2.94714 35.1579 7.64366 27.6851 13.9857Z" fill="white"/>
</svg>
