<svg width="1334" height="394" viewBox="0 0 1334 394" fill="none" xmlns="http://www.w3.org/2000/svg">
<path d="M25.5 138H0V393.5H1333.5V16L1307.5 14.5L1281.5 0.5L1261 14.5L1237 26.5L1209.5 18.5L1176 50L1147 69.5L1125 73.5L1089.5 77.5L1057.5 97C1049.5 101 1039.5 101.333 1034.5 101L941.5 96L931 116.5L898.5 106.5L883 94L871 116.5L846.5 132.5H833.5C827.5 132.1 759.875 162.5 762 171C763.6 177.4 737.667 192.833 725 200.5L685.5 187.5L599.5 233L554.5 243L528.5 236.5L514 251L483.5 249L399.5 206.5L385.5 192L367.5 200.5L359.5 185L299 153.5L264.5 169L241 138H158.5L87.5 116.5L62 132.5L41 116.5L25.5 138Z" fill="url(#paint0_diamond_182_2)"/>
<defs>
<radialGradient id="paint0_diamond_182_2" cx="0" cy="0" r="1" gradientUnits="userSpaceOnUse" gradientTransform="translate(795 354) rotate(-5.51064) scale(598.767 833.351)">
<stop stop-color="#79A6AC"/>
<stop offset="1" stop-color="#4A727E"/>
</radialGradient>
</defs>
</svg>
