<svg width="1333" height="539" viewBox="0 0 1333 539" fill="none" xmlns="http://www.w3.org/2000/svg">
<path d="M1163 0L1183 20L1332.5 41V538.5H-1V429.5L751 286C758.6 282.4 761.833 280.167 762.5 279.5L781.5 265.5L834 227L892 198L901 204L916.5 195L943.5 167.5L988.5 168L960 157.5L986 153.5L979 148L989.5 125L1026 64H1052.5L1032 54.5L1031 48.5H1041.5L1084.5 23L1106.5 28.5L1125 13.5L1146 22.5L1135.5 10.5L1163 0Z" fill="url(#paint0_linear_166_13)"/>
<path d="M834 227C835 226.5 892.5 199.5 892.5 199.5L901 204L917.925 194.736L945.497 167.503H962.863C962.863 167.503 993.501 168.183 991.459 167.503C989.416 166.821 962.863 157.205 962.863 157.205L988.429 153.204L981.159 147.076L991.556 124.608L1027.54 64.0132L1053 63.5L1033.67 53.7999L1032.99 48.3532H1043.2L1085 22.5L1040.63 41.7972L1029.37 40.8319L1021.76 48.2118L987.688 115.284L958.821 149.207L945.597 150.345L936.993 157.673L912.712 186.637L902.629 177.357L834 227Z" fill="#E8F7EC"/>
<path d="M1106.5 28.5L1118.92 7.90108L1163 0L1136.15 10.9077L1146.81 23.0344L1124.79 14.3838L1106.5 28.5Z" fill="#E8F7EC"/>
<defs>
<linearGradient id="paint0_linear_166_13" x1="1039.5" y1="153" x2="666" y2="472.5" gradientUnits="userSpaceOnUse">
<stop stop-color="#C7E8D6"/>
<stop offset="1" stop-color="#BCE1CF"/>
</linearGradient>
</defs>
</svg>
