<svg width="1334" height="450" viewBox="0 0 1334 450" fill="none" xmlns="http://www.w3.org/2000/svg">
<path d="M182.5 192H0V449.5H1333.5V14.5L1324.5 18.5L1275 0L1255 28L1219.5 47L1210 35L1197.5 44.5L1184.5 59.5L1163.5 73L1140.5 63.5L1117.5 77.5L1095.5 104L1075.5 117L1063 143L1047 137.5L1028 150.5L1017.5 144L997 175L940 181.5C917.6 171.9 877.667 175.5 860.5 178.5C851.7 176.5 840.5 179.667 836 181.5C828.4 185.5 819.167 186.833 815.5 187C813.1 186.6 809.167 188.833 807.5 190C801.5 195.6 796.667 198.333 795 199C789.4 202.2 777.333 202.667 772 202.5C760 202.9 752.667 197 750.5 194C746.9 188.8 743 186.5 741.5 186C734.7 182 718.667 184.667 711.5 186.5C707.1 188.1 699.167 189.5 696.5 189.5L656.5 193.5L658 216L650.5 202L633.5 204.5L622.5 211.5L620.5 204.5L608 206L598.5 226L576.5 219.5L542.5 229.5L503 216.5L517.5 222L497 221L482.5 210.5L476 216.5L470.5 207L448 217.5L425 207L404.5 211.5L394 195L383.5 191L362.5 193.5L354 182.5L337.5 171L322 174.5L330 163.5L325.5 161.5L311.5 149L295.5 168L303.5 151.5L257 171L254.5 173H251L237 180H218.5L197 182.5L182.5 192Z" fill="url(#paint0_linear_105_267)"/>
<defs>
<linearGradient id="paint0_linear_105_267" x1="679" y1="194" x2="681" y2="350" gradientUnits="userSpaceOnUse">
<stop offset="0.00220118" stop-color="#86B5B9"/>
<stop offset="1" stop-color="#BEDDD7"/>
</linearGradient>
</defs>
</svg>
