<svg width="1334" height="628" viewBox="0 0 1334 628" fill="none" xmlns="http://www.w3.org/2000/svg">
<path d="M919.5 361L793 394.5L0 515.5V627.5H793H1333V0L1295.5 1.5L1327 7.5L1303.5 23.5L1315.5 31.5L1308.5 34.5L1295.5 107.5L1288.5 61.5L1272.5 69L1266.5 100.5L1264 69L1236 72L1208 151L1222 92L1195.5 107L1186.5 132.5L1187.5 113.5L1155.5 149L1112 159L1095 183.5L1090 202.5C1106 200.1 1110 206.167 1110 209.5L1047 233L1026.5 252L1030 260.5L1009 267L970.5 301.5L899 330L919.5 361Z" fill="url(#paint0_linear_166_7)"/>
<path d="M1112 159L1150.72 141.511L1183.76 107.704L1221.03 57.7893L1260.25 49.5333L1284.33 53.9226L1296.35 -4.57764e-05L1333.19 5.68127L1306.69 22.7026L1319.66 30.872L1310.13 36.3199L1295.83 119.384L1288.46 62.872L1274.04 69L1266.28 106.447L1263.42 69L1237.96 71.7226L1204.6 162.957L1219.57 94.872L1198.47 106.447L1185.53 136.404L1186.21 116.636L1156.26 150.703L1112 159Z" fill="#E8F7EC"/>
<defs>
<linearGradient id="paint0_linear_166_7" x1="1550.5" y1="255.5" x2="1185" y2="242" gradientUnits="userSpaceOnUse">
<stop stop-color="#D0EEDD"/>
<stop offset="1" stop-color="#BBE0CF"/>
</linearGradient>
</defs>
</svg>
